<?xml version="1.0" encoding="UTF-8"?>
<svg id="b" data-name="Layer 2" xmlns="http://www.w3.org/2000/svg" width="243.203" height="164.782" viewBox="0 0 243.203 164.782">
  <g id="c" data-name="Layer 1">
    <g>
      <rect width="243.203" height="164.782" fill="none" stroke-width="0"/>
      <g>
        <path id="d" data-name="path35166" d="M38.706,55.837h.781v22.135h-.781v-22.135Z" fill="#fff" stroke-width="0"/>
        <path id="e" data-name="path35176" d="M45.118,55.837h6.635v22.135h-6.635v-22.135Z" fill="#fff" stroke-width="0"/>
        <path id="f" data-name="path35186" d="M56.771,55.837h3.29v22.135h-3.29v-22.135Z" fill="#fff" stroke-width="0"/>
        <path id="g" data-name="path35196" d="M133.045,72.62h0c-4.739,0-6.523,1.979-7.22,2.732l-1.087-2.23h-8.698v4.879h2.035v30.945h6.83v-11.848c1.394,1.282,3.652,2.23,6.44,2.23,9.032,0,12.712-6.579,12.712-13.967,0-7.527-4.516-12.74-11.012-12.74h0ZM137.171,85.611h0c0,5.213-2.509,8.336-6.635,8.336-4.042,0-5.882-2.537-5.882-8.001,0-5.631,1.84-8.029,6.133-8.029,3.875,0,6.384,3.039,6.384,7.694h0ZM195.91,87.284h0v.446c0,3.15-.697,6.802-5.91,6.802-2.537,0-4.126-1.394-4.126-3.596,0-1.896.753-3.652,6.273-3.652h3.764ZM202.573,93.891h0v-12.908c0-5.631-3.596-8.391-11.012-8.391-1.924,0-4.99.223-5.827.307v5.102s3.596-.251,5.659-.251c3.039,0,4.46,1.087,4.46,3.373v1.673h-4.293c-8.336,0-12.545,2.844-12.545,8.531,0,3.736,2.37,7.945,9.088,7.945,5.269,0,7.416-1.673,8.085-2.453l.976,2.007,7.332-.056v-4.879h-1.924ZM61.817,83.158h0c0,6.774,3.122,10.845,8.28,10.845,3.206,0,5.436-1.31,6.83-4.488h7.666c-1.394,4.907-5.074,10.008-14.692,10.008-9.813,0-15.667-6.022-15.667-16.169,0-4.516,1.478-8.642,4.154-11.625,2.899-3.15,6.97-4.823,11.792-4.823,11.346,0,14.524,8.029,14.524,11.068h-7.527c-.613-2.816-2.286-5.492-7.025-5.492-5.13,0-8.336,4.07-8.336,10.677ZM104.136,87.284h0v.446c0,3.15-.641,6.802-5.882,6.802-2.537,0-4.182-1.394-4.182-3.596,0-1.896.781-3.652,6.273-3.652h3.791ZM110.854,93.891h0v-12.908c0-5.631-3.596-8.391-11.012-8.391-1.924,0-4.99.223-5.827.307v5.102s3.596-.251,5.659-.251c3.039,0,4.46,1.087,4.46,3.373v1.673h-4.293c-8.336,0-12.545,2.844-12.545,8.531,0,3.736,2.37,7.945,9.032,7.945,5.297,0,7.443-1.673,8.057-2.453l1.004,2.007,7.332-.056v-4.879h-1.868ZM170.736,73.094h5.408v4.879h-5.408v13.131c0,1.979.446,3.067,2.899,3.067.864,0,1.394-.056,1.784-.084v4.684c-1.171.39-2.844.53-4.684.53-4.823,0-6.886-2.202-6.886-7.248v-14.078h-1.979v-4.879h1.979v-4.293h6.886v4.293ZM149.242,62.249h6.83v7.248h-6.83v-7.248ZM147.402,73.094h8.67v25.731h-6.83v-20.853h-1.84v-4.879Z" fill="#fff" stroke-width="0"/>
      </g>
    </g>
  </g>
</svg>