<?xml version="1.0" encoding="UTF-8"?>
<svg id="b" data-name="Layer 2" xmlns="http://www.w3.org/2000/svg" width="243.203" height="164.782" viewBox="0 0 243.203 164.782">
  <g id="c" data-name="Layer 1">
    <g>
      <rect width="243.203" height="164.782" fill="none" stroke-width="0"/>
      <path id="d" data-name="path813" d="M183.752,68.065s0,19.898,0,19.898c0,.983.514,1.557,1.044,1.919.568.381,1.402.572,2.525.572.711,0,1.65-.236,1.65-.236,0,0,0-1.784,0-1.784-.282.017-.531.034-.808.034-1.672,0-1.919-.653-1.919-1.38,0,0,0-19.022,0-19.022h-2.491ZM131.129,68.267c-1.878,0-3.575.589-4.781,1.65-1.17,1.035-1.818,2.463-1.818,4.006,0,1.7.688,3.029,2.121,4.074,1.264.923,2.936,1.519,4.545,2.087,2.798.995,5.42,1.904,5.42,4.444,0,1.13-.384,2.098-1.111,2.761-.799.728-1.949,1.077-3.468,1.077-2.663,0-4.601-1.474-5.69-4.343,0,0-2.39.64-2.39.64.515,1.163,1.391,2.842,2.66,3.973,1.392,1.248,3.119,1.852,5.286,1.852,2.566,0,4.514-.662,5.791-1.986,1.324-1.379,1.616-3.143,1.616-4.377,0-1.768-.747-3.132-2.256-4.208-1.317-.945-3.021-1.554-4.68-2.121-2.702-.924-5.281-1.803-5.252-4.074.01-1.059.377-1.883,1.044-2.458.68-.584,1.649-.875,2.895-.875,1.31,0,2.477.366,3.367,1.077.818.648,1.413,1.609,1.683,2.693,0,0,2.323-.303,2.323-.303-1.019-3.475-3.51-5.589-7.306-5.589ZM24.639,68.57v21.615h2.491v-19.763l.067.067,5.925,19.696h1.919l5.959-19.696.034-.067v19.763h2.491v-21.615h-4.141l-5.286,17.372v.067l-.034-.067-5.286-17.372h-4.141ZM143.25,69.008v5.185h-2.39v1.986s2.39,0,2.39,0v11.784c0,.983.448,1.557.976,1.919.569.381,1.4.572,2.525.572.712,0,1.683-.236,1.683-.236,0,0,0-1.784,0-1.784-.277.017-.566.034-.842.034-1.674,0-1.852-.653-1.852-1.38,0,0,0-10.908,0-10.908h2.693v-1.986h-2.693v-5.185h-2.491ZM53.626,73.89c-2.098,0-3.876.845-5.117,2.424-1.152,1.473-1.784,3.555-1.784,5.858,0,2.305.632,4.383,1.784,5.858,1.242,1.583,3.02,2.424,5.117,2.424s3.879-.841,5.117-2.424c1.152-1.475,1.784-3.553,1.784-5.858,0-2.303-.632-4.385-1.784-5.858-1.238-1.579-3.011-2.424-5.117-2.424ZM197.353,73.924c-1.065,0-2.055.196-2.895.572-.822.371-1.553.929-2.121,1.65-1.13,1.415-1.784,3.515-1.784,6.06,0,2.832.814,4.993,2.289,6.431,1.556,1.519,3.54,1.818,4.915,1.818,3.575,0,5.328-1.934,6.06-3.703,0,0-1.986-.976-1.986-.976-.483,1.077-1.593,2.727-4.074,2.727-1.418,0-2.578-.581-3.4-1.65-.795-1.035-1.241-2.467-1.246-4.175,0,0,10.908,0,10.908,0,0,0,0-1.515,0-1.515,0-2.617-.697-4.569-1.986-5.757-1.098-1.01-2.638-1.481-4.68-1.481ZM79.146,73.957c-2.811,0-6.801,1.891-6.801,8.249,0,6.173,3.978,8.249,6.666,8.249,1.569,0,2.995-.869,3.973-2.121,0,0,.135-.067.135-.067,0,0,0,3.03,0,3.03,0,2.125-1.839,3.434-3.804,3.434-1.911,0-3.602-.365-4.983-1.01,0,0,0,2.155,0,2.155,1.163.498,3.055.808,4.68.808,4.423,0,6.532-2.434,6.532-5.959,0,0,0-16.463,0-16.463h-1.852l-.539,1.683c-.914-1.191-2.111-1.986-4.006-1.986ZM95.24,73.957c-3.538,0-5.214,2.12-5.926,3.434l1.986,1.044c.279-.751,1.282-2.491,3.973-2.491,2.121,0,3.198.936,3.198,2.794v.572s.017.174-.034.236c-.079.099-.302.181-.842.236-2.97.331-4.945.819-6.397,1.751-1.577,1.013-2.559,2.432-2.559,4.377,0,1.381.669,2.561,1.549,3.4.818.774,1.933,1.176,3.165,1.212,2.622.084,4.349-1.007,5.185-2.289.065.881.381,1.384,1.077,1.751.654.349,1.728.28,2.188.168,0,0,0-1.683,0-1.683-.555-.028-.909-.292-.909-.976,0,0,0-7.71,0-7.71,0,0,0-1.01,0-1.01,0-1.591-.624-2.896-1.818-3.737-.984-.698-2.359-1.077-3.838-1.077h0ZM112.376,73.957c-1.621,0-3.281.84-4.68,2.424v-2.121h-2.491v15.958h2.491s0-11.851,0-11.851c.848-.906,2.748-2.424,4.478-2.424s2.491.851,2.491,2.761c0,0,0,11.514,0,11.514h2.491v-11.582c0-3.448-2.452-4.68-4.781-4.68ZM157.457,73.957c-3.536,0-5.211,2.12-5.926,3.434,0,0,1.986,1.044,1.986,1.044.28-.751,1.282-2.491,3.973-2.491,2.121,0,3.198.936,3.198,2.794,0,0,0,.572,0,.572,0,0-.017.174-.067.236-.078.099-.267.181-.808.236-2.97.331-4.945.819-6.397,1.751-1.576,1.013-2.559,2.432-2.559,4.377,0,1.381.668,2.56,1.549,3.4.818.774,1.934,1.176,3.165,1.212,2.62.084,4.349-1.007,5.185-2.289.066.881.379,1.384,1.077,1.751.653.349,1.727.28,2.188.168,0,0,0-1.683,0-1.683-.554-.028-.909-.292-.909-.976,0,0,0-7.71,0-7.71,0,0,0-1.01,0-1.01,0-1.591-.657-2.896-1.852-3.737-.985-.698-2.327-1.077-3.804-1.077h0ZM174.594,73.957c-1.626,0-3.281.84-4.68,2.424v-2.121h-2.491v15.958h2.491s0-11.851,0-11.851c.849-.906,2.746-2.424,4.478-2.424s2.491.851,2.491,2.761v11.514h2.491v-11.582c0-3.448-2.452-4.68-4.781-4.68ZM71.403,74.025c-2.528,0-4.026.98-5.319,3.299v-3.064h-2.491v15.925h2.491s0-9.023,0-9.023c.615-3.278,2.35-4.814,5.319-4.814v-2.323ZM205.703,74.227l5.555,15.824s0,.135,0,.135c-.332,1.517-1.292,3.389-2.155,3.973-.762.517-1.587.572-2.222.572-.307,0-.94-.104-1.212-.168,0,0,0,1.919,0,1.919.345.085,1.14.236,1.65.236,1.187,0,2.189-.297,3.03-.909,1.007-.732,2.124-2.641,2.66-4.276,0,0,5.555-17.305,5.555-17.305h-2.424l-3.636,12.255-.034.269-.067-.269-4.276-12.255h-2.424ZM53.626,75.876c2.682,0,4.276,2.354,4.276,6.296,0,3.943-1.594,6.296-4.276,6.296s-4.276-2.353-4.276-6.296c0-3.942,1.598-6.296,4.276-6.296ZM79.315,75.91c1.406,0,2.64.607,3.804,2.054,0,0,0,7.609,0,7.609-.645,1.835-2.492,2.895-3.804,2.895-2.569,0-4.343-1.6-4.343-6.397,0-4.034,1.592-6.161,4.343-6.161ZM197.421,75.91c2.854,0,4.13,1.509,4.141,4.781,0,0-8.383,0-8.383,0,.217-3.269,1.587-4.781,4.242-4.781ZM98.539,81.532s0,4.04,0,4.04c-.115,1.395-2.721,3.083-4.848,2.963-1.173-.064-2.304-1.009-2.424-2.559-.195-2.589,1.751-3.664,6.094-4.141.302-.028.887-.135,1.178-.303ZM160.757,81.532s0,4.04,0,4.04c-.115,1.394-2.721,3.083-4.848,2.963-1.171-.065-2.307-1.01-2.424-2.559-.198-2.589,1.75-3.664,6.094-4.141.3-.028.889-.135,1.178-.303Z" fill="#fff" stroke-width="0"/>
    </g>
  </g>
</svg>