<?xml version="1.0" encoding="UTF-8"?>
<svg id="b" data-name="Layer 2" xmlns="http://www.w3.org/2000/svg" width="243.203" height="164.782" viewBox="0 0 243.203 164.782">
  <g id="c" data-name="Layer 1">
    <g>
      <rect width="243.203" height="164.782" fill="none" stroke-width="0"/>
      <g>
        <path d="M116.527,101.168c-.401.057-.631.344-.631.803l1.261-.115c0-.516-.229-.745-.631-.688Z" fill="#fff" stroke-width="0"/>
        <path d="M133.039,99.734c-.401.057-.631.344-.631.803l1.261-.115c0-.516-.229-.745-.631-.688Z" fill="#fff" stroke-width="0"/>
        <path d="M100.875,102.544c-.401,0-.631.344-.631.917v.459c0,.573.229.803.631.803s.631-.344.631-.917v-.459c0-.573-.229-.803-.631-.803Z" fill="#fff" stroke-width="0"/>
        <path d="M94.11,89.816v-4.185l-1.605.172c-1.892.172-2.867,1.032-2.523,3.096.172,1.204,1.089,1.319,2.523,1.204.516-.115,1.089-.172,1.605-.287Z" fill="#fff" stroke-width="0"/>
        <path d="M85.739,103.805c-.229,0-.459.057-.573.057v2.121h.573c.516-.057.631-.401.631-.917v-.459c0-.459-.115-.803-.631-.803Z" fill="#fff" stroke-width="0"/>
        <path d="M89.179,105.41v.057c0,.344.172.401.573.344.115,0,.287-.057.401-.057v-.917l-.401.057c-.459.057-.573.172-.573.516Z" fill="#fff" stroke-width="0"/>
        <path d="M161.821,97.212c-.229,0-.459.057-.573.057v2.121h.573c.516-.057.631-.401.631-.917v-.459c0-.459-.115-.803-.631-.803Z" fill="#fff" stroke-width="0"/>
        <path d="M153.565,97.957c-.401,0-.631.344-.631.917v.459c0,.573.229.803.631.803s.631-.344.631-.917v-.459c0-.573-.229-.803-.631-.803Z" fill="#fff" stroke-width="0"/>
        <path d="M66.475,48.192l10.951,68.398,94.829-8.371,4.472-60.028h-110.252ZM87.459,105.066c0,1.089-.516,1.777-1.72,1.892h-.573v1.204c0,.057-.057.115-.115.172l-.86.057c-.057,0-.172-.057-.172-.115v-4.816c0-.115,0-.172.229-.229.401-.115.917-.287,1.491-.287,1.147-.115,1.72.516,1.72,1.605v.516ZM91.129,106.328c-.344.115-.803.229-1.376.287-1.147.115-1.663-.229-1.663-1.032v-.057c0-.803.573-1.204,1.663-1.319l.401-.057v-.229c0-.401-.172-.459-.516-.401-.459.057-.917.115-1.147.172-.057,0-.172,0-.172-.115v-.573c0-.057.057-.115.115-.172.229-.057.745-.229,1.147-.229.975-.115,1.605.229,1.605,1.261v2.293c.057.057.057.115-.057.172ZM83.389,89.93c-1.089-6.364,4.071-7.625,9.116-8.084l1.433-.172v-1.605c-.172-1.261-1.089-1.491-2.179-1.376-2.351.287-5.16.631-6.077.803-.631.115-.917-.172-.917-.631l.172-3.612c0-.401.287-.745.631-.917,1.892-.803,4.013-1.261,6.077-1.433,4.529-.344,8.256,1.204,9.001,5.389.172,1.032.172,1.949.172,2.924v11.008c0,.459-.115.745-.459.917-2.523,1.032-5.16,1.548-7.855,1.835-5.332.459-8.485-1.605-9.116-5.045ZM94.11,103.06s-.057.057-.172.115c-.172,0-.631.057-.745.115v2.867c0,.057-.057.172-.115.172l-.86.057c-.057,0-.172-.057-.172-.115v-3.44c0-.115.057-.172.229-.229.459-.172,1.032-.287,1.663-.344.057,0,.172,0,.172.115v.688ZM96.919,102.658c-.057.115-.115.172-.172.229l-.917.057v2.007c0,.229.115.287.401.229l.516-.057c.115,0,.172,0,.172.115v.516c0,.057-.057.115-.115.172-.172.057-.516.115-.803.115-.745.057-1.204-.115-1.204-1.032v-3.44c0-.057.057-.115.115-.172l.86-.229c.057,0,.115.057.115.115v.745l.917-.057c.057,0,.115.057.115.115v.573ZM102.595,103.69c0,1.147-.631,1.892-1.72,1.949-1.147.115-1.72-.516-1.72-1.605v-.459c0-1.089.631-1.835,1.72-1.949,1.147-.115,1.72.516,1.72,1.605v.459ZM105.347,102.085l-.917.057v2.924c0,.057-.057.172-.172.172l-.86.057c-.057,0-.172-.057-.172-.115v-4.071c0-.917.631-1.204,1.319-1.261h.745c.057,0,.115.057.115.057v.573c0,.057,0,.115-.115.115l-.745.057c-.229,0-.287.172-.287.344v.287l.917-.057c.057,0,.115.057.115.115v.573c.229.115.115.172.057.172ZM110.106,101.512c-.057.115-.115.172-.172.229l-.917.057v2.007c0,.229.115.287.401.229l.516-.057c.115,0,.172.057.172.115v.516c0,.057-.057.115-.115.172-.172.057-.516.115-.803.115-.745.057-1.204-.115-1.204-1.032v-3.44c0-.057.057-.115.115-.172l.86-.229c.057,0,.115.057.115.115v.745l.917-.057c.057,0,.115.057.115.115v.573ZM110.163,92.281c0,.459-.287.803-.745.917l-5.447.459h-.172c-.344,0-.631-.344-.631-.631v-27.233c.057-.344.344-.688.803-.803l5.16-1.376c.688-.172.975.172.975.631v16.111l4.644-8.428c.287-.631.573-.745.917-.745l6.708-.631c.516-.057.631.459.516.745l-6.593,10.148,6.479,9.804c.172.287.115.688-.344.803l-6.536.516c-.459,0-.745-.229-1.089-.745l-4.644-7.969v8.428ZM113.89,104.493l-.86.057c-.057,0-.115-.057-.115-.115v-2.293c0-.459-.115-.631-.516-.573-.172,0-.401.115-.631.287v2.695c0,.057-.057.172-.115.172l-.86.057c-.057,0-.172-.057-.172-.115v-4.988c0-.057.057-.115.115-.172l.86-.057c.057,0,.115.057.115.115v1.433c.344-.229.631-.344,1.032-.401.975-.115,1.204.573,1.204,1.433v2.293c.115.057,0,.115-.057.172ZM118.075,102.486l-2.179.172c0,.401.172.745.688.688.459-.057,1.032-.115,1.319-.172.057,0,.115,0,.115.115v.516c0,.115,0,.172-.172.172-.459.172-.803.229-1.433.287-.86.057-1.72-.287-1.72-1.605v-.459c0-1.089.631-1.835,1.72-1.949,1.147-.115,1.72.631,1.72,1.663v.401c.115.115.057.172-.057.172ZM124.21,99.39s-.057.057-.172.057l-1.147.115v4.013c0,.057-.057.115-.115.172l-.917.057c-.057,0-.115-.057-.115-.115v-4.013l-1.147.115c-.057,0-.115-.057-.115-.115v-.688c0-.057.057-.115.115-.115l3.44-.287c.057,0,.172.057.172.115v.688ZM124.267,85.516v-18.347c0-.344.287-.688.745-.803l5.275-1.376c.688-.172.975.172.975.631v4.243l4.816-.459c.459-.115.745.057.803.573v3.841c0,.401-.401.745-.745.745l-4.816.459v10.607c.057.516.344.631,1.433.516l3.096-.287c.459,0,.803.115.803.631v3.44c0,.344-.287.688-.745.803-1.433.401-2.867.631-4.415.745-3.727.344-6.421-.803-7.052-4.357-.172-.516-.172-1.089-.172-1.605ZM134.243,97.498l-.86.917c-.057.057-.057.115-.172.115l-.745.057q-.057,0-.057-.057v-.057l.631-.86c.057-.057.115-.115.172-.115l.917-.057q.057,0,.057.057.057-.057.057,0ZM127.937,103.232c.057,1.032-.459,1.433-1.605,1.548-.573.057-1.089,0-1.319-.057-.115,0-.115-.057-.115-.172v-.459c0-.057.057-.115.115-.115.287,0,.975,0,1.319-.057.459-.057.573-.172.573-.573v-.057c-.115.057-.401.115-.573.115-1.147.115-1.72-.516-1.72-1.605v-2.007c0-.057.057-.115.115-.172l.86-.057c.057,0,.115.057.115.115v2.007c0,.459.115.86.631.803.172,0,.401-.057.573-.115v-2.809c0-.057.057-.115.115-.172l.803-.057c.057,0,.115.057.115.115v3.784ZM130.918,99.792c0,.115-.057.172-.172.172-.172,0-.631.057-.745.115v2.867c0,.057-.057.172-.115.172l-.86.057c-.057,0-.172-.057-.172-.115v-3.44c0-.115.057-.172.229-.229.459-.172,1.032-.287,1.663-.344.057,0,.172,0,.172.115v.631ZM134.645,101.053l-2.179.172c0,.401.172.745.688.688.459-.057,1.032-.115,1.319-.172.057,0,.115,0,.115.115v.516c0,.115,0,.172-.172.172-.459.172-.803.229-1.433.287-.86.057-1.72-.287-1.72-1.605v-.459c0-1.089.631-1.835,1.72-1.949,1.147-.115,1.72.631,1.72,1.663v.401c.057.115,0,.172-.057.172ZM138.945,102.257c-.115,0-.115.057-.229.057l-.86.057c-.057,0-.115-.057-.115-.115v-2.408c0-.287-.057-.516-.401-.459l-.344.057c-.344.057-.401.229-.401.573v2.408c0,.057-.057.172-.115.172l-.86.057c-.057,0-.115-.057-.115-.115v-2.408c0-.917.516-1.491,1.548-1.548l.344-.057c.975-.115,1.548.344,1.548,1.319v2.408ZM140.951,102.2c-.401.057-.917,0-1.261-.057-.057,0-.115-.057-.115-.172v-.573c0-.057.057-.115.115-.115h1.147c.344,0,.401-.115.401-.287,0-.115-.057-.172-.229-.287l-.917-.459c-.401-.172-.631-.516-.631-.975,0-.688.459-1.089,1.433-1.204.573-.057.86,0,1.204.057.057,0,.115.057.115.172v.573c0,.057-.057.115-.115.115h-1.147c-.287,0-.344.057-.344.229,0,.115.057.172.229.229l.86.401c.573.287.688.631.688.975.057.745-.459,1.261-1.433,1.376ZM144.506,89.414v-2.465c0-.459.401-.803.745-.803l.975-.115v-19.665l-.975.115h-.115c-.344,0-.631-.229-.631-.516v-2.465c0-.459.401-.803.745-.803l8.141-.745h.115c.344,0,.631.287.631.631v2.465c0,.459-.401.688-.745.803l-.975.115v19.551l.975-.115h.115c.344,0,.631.287.631.631v2.465c0,.459-.401.803-.745.803l-8.141.745h-.115c-.344,0-.631-.287-.631-.631ZM148.405,97.384c-.344,0-.86,0-1.433.057-.573.057-.917.344-.917,1.261v.86c0,.917.459,1.147.745,1.089.172,0,.344-.057.516-.057v-1.548c0-.057.057-.115.115-.172l.86-.057c.057,0,.115.057.115.115v2.293c0,.115-.057.115-.115.172-.401.115-.86.229-1.548.287-.803.057-1.949-.287-1.949-2.007v-.86c0-1.72,1.089-2.293,2.121-2.351.688-.057,1.204,0,1.433.057.057,0,.115.057.115.115v.745h-.057ZM151.443,98.072s-.057.115-.172.115c-.172,0-.631.057-.745.115v2.867c0,.057-.057.172-.115.172l-.86.057c-.057,0-.172-.057-.172-.115v-3.44c0-.115.057-.172.229-.229.459-.172,1.032-.287,1.663-.344.057,0,.172,0,.172.115v.688ZM155.285,99.161c0,1.089-.573,1.835-1.72,1.949s-1.72-.516-1.72-1.605v-.459c0-1.089.631-1.835,1.72-1.949,1.147-.115,1.72.516,1.72,1.605v.459ZM159.298,98.76c.057,1.72-1.147,1.949-1.548,1.949h-.115c-.459.057-1.663,0-1.663-1.605v-2.121c0-.057.057-.172.115-.172l.86-.057c.057,0,.115.057.115.115v2.121c0,.631.229.803.516.745h.115c.344,0,.516-.172.516-.86v-2.121c0-.057.057-.172.115-.172l.86-.057c.057,0,.115.057.115.115v2.121ZM163.598,98.473c0,1.089-.573,1.777-1.72,1.892h-.573v1.204c0,.057-.057.115-.115.172l-.86.057c-.057,0-.172-.057-.172-.115v-4.816c0-.115,0-.172.229-.229.401-.115.917-.287,1.491-.287,1.147-.115,1.72.516,1.72,1.605v.516ZM164.63,64.016c0,.459-.401.803-.745.803l-.975.115v19.723l.975-.172h.115c.344,0,.631.287.631.631v2.465c0,.459-.401.803-.745.803l-8.141.745h-.115c-.344,0-.631-.287-.631-.631v-2.465c0-.459.401-.803.745-.803l.975-.115v-19.665l-.975.115h-.115c-.287,0-.631-.229-.631-.516v-2.465c0-.459.401-.803.745-.803l8.141-.745c.459,0,.745.287.745.631v2.351Z" fill="#fff" stroke-width="0"/>
      </g>
    </g>
  </g>
</svg>