<?xml version="1.0" encoding="UTF-8"?>
<svg id="b" data-name="Layer 2" xmlns="http://www.w3.org/2000/svg" width="243.203" height="164.782" viewBox="0 0 243.203 164.782">
  <g id="c" data-name="Layer 1">
    <g>
      <rect width="243.203" height="164.782" fill="none" stroke-width="0"/>
      <path id="d" data-name="path6082" d="M68.992,87.39l-3.333,9.913c-.101.722.064,1.3.488,1.719.647.653,1.624.992,2.929,1.019v.255h-10.804v-.255c2.277-.154,3.662-.945,4.16-2.377l11.441-34.047,14.094,34.238c.504,1.305,1.762,2.032,3.757,2.186l.043.255h-11.144v-.255c1.173,0,2.022-.324,2.547-.976.292-.249.371-.69.233-1.316-.849-2.149-2.266-5.604-4.245-10.358h-10.167ZM69.714,85.225h8.512l-4.585-11.483-3.927,11.483ZM162.09,66.694v-.191c7.541-.027,12.354.09,14.434.34,1.693.202,3.274.844,4.733,1.932,1.47,1.093,2.505,2.436,3.099,4.033.377,1.051.573,2.16.573,3.333,0,2.409-.732,4.447-2.186,6.113-1.9,2.08-4.123,3.12-6.665,3.12-.934,0-1.863-.159-2.781-.488-.722-.249-1.083-.494-1.083-.722,1.767.058,2.993.011,3.672-.149,1.173-.292,2.261-.939,3.269-1.932,1.014-1.003,1.64-2.107,1.868-3.311.122-.547.191-1.104.191-1.656,0-3.067-1.353-5.482-4.054-7.238-1.231-.817-2.701-1.231-4.394-1.231-.95,0-1.852.154-2.696.446v27.934c0,1.687,1.136,2.69,3.417,3.014v.255h-11.292v-.255c1.624-.223,2.738-.854,3.333-1.889.196-.393.297-1.682.297-3.863v-24.898c0-1.343-.854-2.192-2.547-2.547-.271-.027-.669-.074-1.189-.149ZM106.838,66.503c1.852,0,3.609.568,5.264,1.698,1.666,1.12,2.866,2.558,3.587,4.309.451,1.146.679,2.372.679,3.672,0,2.478-.754,4.516-2.25,6.113-.711.78-1.64,1.518-2.781,2.208,2.446,3.057,5.869,7.185,10.273,12.375,1.496,1.783,3.513,2.648,6.05,2.59.042.032.064.096.064.191-.976.552-2.128.828-3.439.828-1.656,0-3.11-.403-4.351-1.21-1.926-1.268-3.932-3.232-6.007-5.88-3.354-4.367-5.068-6.585-5.137-6.644-1.077-1.199-2.33-1.937-3.757-2.208v-.191c2.669.228,4.76-.557,6.262-2.356,1.029-1.226,1.549-2.823,1.549-4.776,0-.987-.143-1.921-.425-2.802-.467-1.396-1.343-2.632-2.611-3.693-1.263-1.056-2.616-1.682-4.054-1.868-1.56-.239-2.828-.143-3.8.276v28.082c.08.679.456,1.284,1.125,1.804.547.456,1.178.754,1.889.892l.976.127v.255h-11.781v-.255c1.794-.223,2.956-.891,3.481-1.995l.149-.934v-27.573c0-1.173-.674-2.006-2.017-2.505-.525-.154-1.226-.265-2.101-.34v-.191h13.16ZM156.826,66.694c-2.351.329-3.614,1.13-3.778,2.399v21.12c-.159,2.027-.865,3.932-2.123,5.71-1.263,1.772-2.834,3.131-4.712,4.075-1.571.775-3.348,1.167-5.328,1.167-2.521,0-4.696-.605-6.516-1.804-3.81-2.446-5.71-5.885-5.71-10.316v-19.698c0-.987-.589-1.762-1.762-2.314-.143-.027-.801-.138-1.974-.34v-.233h11.59v.191c-2.181.159-3.423.96-3.715,2.399v21.014c0,3.327,1.401,5.842,4.203,7.535,1.268.796,2.759,1.189,4.457,1.189,2.149,0,4.086-.769,5.816-2.314,1.725-1.555,2.611-3.407,2.653-5.561l.042-3.927v-17.405c0-1.098-.642-1.916-1.91-2.441-.255-.096-.907-.244-1.953-.446v-.233h10.719v.233Z" fill="#fff" stroke-width="0"/>
    </g>
  </g>
</svg>