<?xml version="1.0" encoding="UTF-8"?>
<svg id="b" data-name="Layer 2" xmlns="http://www.w3.org/2000/svg" width="243.203" height="164.782" viewBox="0 0 243.203 164.782">
  <g id="c" data-name="Layer 1">
    <g>
      <rect width="243.203" height="164.782" fill="none" stroke-width="0"/>
      <path d="M31.507,71.445c5.312,0,8.538,4.098,8.538,8.609,0,4.72-3.676,8.609-8.561,8.609-5.93,0-8.586-4.601-8.586-8.609,0-4.625,3.604-8.609,8.609-8.609ZM31.459,86.15c3.25,0,5.716-2.608,5.716-6.095,0-3.416-2.277-6.095-5.691-6.095-3.22,0-5.716,2.586-5.716,6.095,0,3.487,2.466,6.095,5.691,6.095ZM49.226,76.494c-.33-.052-.663-.075-.997-.07-1.518,0-2.656.995-3.177,1.968h-.072v-1.61h-2.609v11.365h2.656v-5.74c0-2.372,1.068-3.558,2.87-3.558.445.003.89.043,1.329.119v-2.475ZM62.143,88.143h-2.586v-1.352h-.073c-.99,1.136-2.431,1.779-3.938,1.756-2.561,0-5.415-2.04-5.415-6.095,0-3.558,2.488-6.048,5.551-6.048,1.873,0,2.94.783,3.77,1.803h.072v-7.14h2.609l.01,17.077ZM56.289,86.222c1.803,0,3.391-1.518,3.391-3.7,0-2.301-1.494-3.843-3.366-3.843-2.301,0-3.439,1.922-3.439,3.771-.006,1.898,1.109,3.771,3.41,3.771h.004ZM64.872,71.564h2.942v2.704h-2.942v-2.704ZM65.018,76.782h2.656v11.361h-2.661l.004-11.361ZM70.505,88.142h2.656v-6.025c0-2.204,1.139-3.366,2.798-3.366,1.519,0,2.444,1.043,2.444,2.988v6.404h2.658v-6.546c0-3.653-2.063-5.195-4.412-5.195-1.383-.015-2.682.662-3.463,1.803h-.047v-1.422h-2.634v11.359ZM95.069,88.143h-2.586v-1.447h-.072c-.932,1.195-2.374,1.881-3.89,1.85-2.561,0-5.456-2.04-5.456-6.095,0-3.604,2.563-6.024,5.645-6.024,1.902,0,3.037.995,3.724,1.902h.047v-1.547h2.586v11.361ZM89.234,86.222c1.756,0,3.366-1.518,3.366-3.7,0-2.301-1.494-3.82-3.344-3.82-2.342,0-3.463,1.902-3.463,3.748.001,1.898,1.093,3.771,3.441,3.771ZM104.78,76.494c-.329-.052-.662-.075-.995-.07-1.519,0-2.656.995-3.179,1.968h-.072v-1.61h-2.608v11.365h2.656v-5.74c0-2.372,1.067-3.558,2.87-3.558.445.003.889.043,1.327.119v-2.475ZM116.577,76.782h-2.634l-1.922,5.645c-.31.932-.524,1.664-.767,2.609h-.072c-.142-.783-.521-1.898-.758-2.609l-1.97-5.645h-2.726l4.156,11.312-2.087,5.621h2.538l6.242-16.934ZM147.311,82.996v-2.23h-22.626v2.23h22.626ZM172.169,71.968h-3.182l-2.819,8.798c-.26.831-.664,2.087-.878,2.965h-.098c-.214-.877-.569-2.087-.853-2.965l-2.846-8.798h-3.202l-1.878,16.176h2.561l.901-8.753c.126-1.139.244-2.505.293-3.676h.162c.26,1.234.735,2.609,1.09,3.701l2.699,8.728h2.093l2.687-8.539c.381-1.185.831-2.751,1.139-3.89h.119c.095,1.02.237,2.704.357,3.866l.853,8.563h2.704l-1.902-16.176ZM187.165,82.355c.008.262-.008.524-.048.783h-8.781c0,1.778,1.566,3.321,3.392,3.321,1.01.038,1.968-.446,2.538-1.281h2.726c-.758,1.731-2.396,3.366-5.268,3.366-3.487,0-6.048-2.561-6.048-6.19,0-3.202,2.182-5.953,5.763-5.953,3.924.026,5.726,3.062,5.726,5.955ZM178.366,81.217h6.146c-.167-1.518-1.329-2.822-3.06-2.822-1.829,0-2.944,1.352-3.086,2.822ZM200.651,88.143h-2.579v-1.352h-.07c-.99,1.136-2.431,1.779-3.938,1.756-2.561,0-5.415-2.04-5.415-6.095,0-3.558,2.488-6.048,5.551-6.048,1.873,0,2.94.783,3.77,1.803h.072v-7.14h2.609v17.077ZM194.797,86.222c1.802,0,3.391-1.518,3.391-3.7,0-2.301-1.494-3.843-3.366-3.843-2.301,0-3.439,1.922-3.439,3.771-.006,1.898,1.109,3.771,3.41,3.771h.004ZM203.38,71.564h2.942v2.704h-2.942v-2.704ZM203.527,76.782h2.656v11.361h-2.656v-11.361ZM220.305,88.143h-2.586v-1.447h-.07c-.932,1.195-2.374,1.881-3.89,1.85-2.561,0-5.456-2.04-5.456-6.095,0-3.604,2.563-6.024,5.646-6.024,1.902,0,3.035.995,3.723,1.902h.047v-1.547h2.586v11.361ZM214.47,86.222c1.756,0,3.366-1.518,3.366-3.7,0-2.301-1.494-3.82-3.344-3.82-2.342,0-3.463,1.902-3.463,3.748.001,1.898,1.092,3.771,3.441,3.771Z" fill="#fff" stroke-width="0"/>
    </g>
  </g>
</svg>