<?xml version="1.0" encoding="UTF-8"?>
<svg id="b" data-name="Layer 2" xmlns="http://www.w3.org/2000/svg" width="243.203" height="164.782" viewBox="0 0 243.203 164.782">
  <g id="c" data-name="Layer 1">
    <g>
      <rect width="243.203" height="164.782" fill="none" stroke-width="0"/>
      <path d="M107.792,68.129h-3.745v-2.222h10.002v2.222h-3.746v10.661h-2.511v-10.661ZM117.179,72.122c.823-.659,1.523-.905,2.387-.905.245,0,.451,0,.698.082v-1.976c-.37-.082-.494-.123-.782-.123-1.029,0-1.811.411-2.428,1.276v-1.029h-2.099v9.343h2.223v-6.668ZM128.208,70.187c.576.577.823,1.317.823,2.594v6.009h-2.099v-.782c-.823.618-1.729.988-2.799.988-1.769,0-2.963-1.112-2.963-2.758,0-2.14,2.141-3.499,5.639-3.704-.082-1.029-.659-1.44-1.934-1.44-1.071,0-2.1.329-3.047.905l.494-2.223c1.071-.412,1.976-.576,3.005-.576,1.235,0,2.222.329,2.881.987ZM126.808,74.097c-2.265.288-3.335.906-3.335,1.893,0,.7.454,1.152,1.276,1.152.618,0,1.112-.206,2.058-.699v-2.346ZM137.798,73.521v5.269h2.223v-5.722c0-2.346-1.235-3.869-3.827-3.869-.823,0-1.853.329-2.511,1.029v-.782h-2.1v9.343h2.223v-6.709c.658-.534,1.276-.823,2.058-.823,1.317,0,1.934.782,1.934,2.264ZM145.372,75.044c1.029.329,1.728.576,1.728,1.235,0,.577-.494.823-1.318.823-1.317,0-2.758-.618-3.787-1.4v2.181c1.03.659,2.305,1.112,3.787,1.112,2.141,0,3.623-1.029,3.623-2.799,0-2.058-1.524-2.634-3.458-3.169-1.399-.37-1.729-.576-1.729-1.112,0-.37.33-.823,1.4-.823.782,0,1.934.411,2.922,1.029v-2.058c-1.07-.576-2.058-.864-3.169-.864-2.058,0-3.581,1.112-3.581,2.799,0,1.893,1.523,2.428,3.581,3.046ZM155.62,78.996c-.864,0-1.564-.206-2.181-.659v4.075h-2.223v-12.965h2.099v.74c.576-.576,1.4-.987,2.387-.987,2.676,0,4.487,2.099,4.487,4.939,0,2.758-1.688,4.857-4.568,4.857ZM157.883,74.261c0-1.893-.987-2.963-2.675-2.964-.659,0-1.276.206-1.77.535v4.693c.453.33.988.535,1.853.535,1.604,0,2.593-1.029,2.593-2.799ZM166.444,78.996c-2.675,0-4.898-2.182-4.898-4.898,0-2.675,2.223-4.898,4.898-4.898,2.717,0,4.899,2.223,4.899,4.898,0,2.716-2.181,4.897-4.899,4.898ZM169.079,74.097c0-1.482-1.111-2.676-2.634-2.675-1.44,0-2.593,1.152-2.593,2.675s1.112,2.716,2.593,2.716c1.523,0,2.634-1.193,2.634-2.716ZM178.71,71.298v-1.976c-.37-.082-.534-.123-.823-.123-1.03,0-1.77.411-2.387,1.276v-1.029h-2.1v9.343h2.223v-6.668c.823-.659,1.523-.905,2.387-.905.206,0,.453,0,.699.082ZM180.685,75.743c0,2.223,1.358,3.252,3.375,3.252.865,0,1.647-.123,2.306-.37v-2.058c-.741.33-1.4.535-1.853.535-1.605,0-1.605-.947-1.605-1.441v-4.404h3.375v-1.81h-3.375v-2.305h-2.223v2.305h-1.564v1.811h1.564v4.486ZM105.405,89.738h-1.44v1.769h1.44v7.616h2.223v-7.616h3.128v-1.769h-3.128c0-1.234.329-2.141,1.646-2.141.782,0,1.276.207,1.729.412v-1.893c-.659-.205-1.482-.329-2.264-.329-2.305,0-3.334,1.317-3.334,3.951ZM121.252,94.43c0,2.717-2.181,4.898-4.898,4.898s-4.898-2.181-4.898-4.898,2.181-4.898,4.898-4.898,4.898,2.181,4.898,4.898ZM118.946,94.43c0-1.481-1.112-2.717-2.593-2.717s-2.634,1.193-2.634,2.717,1.153,2.717,2.634,2.717,2.593-1.195,2.593-2.717ZM125.368,90.766v-1.029h-2.1v9.385h2.223v-6.669c.864-.658,1.523-.905,2.429-.905.206.002.411.002.699.082v-1.974c-.371-.083-.535-.124-.823-.124-1.029,0-1.769.412-2.428,1.234ZM138.003,86.198h-2.51v12.925h7.902v-2.347h-5.392v-10.578ZM154.261,94.43c0,2.717-2.181,4.898-4.898,4.898s-4.898-2.181-4.898-4.898,2.181-4.898,4.898-4.898,4.898,2.181,4.898,4.898ZM151.998,94.43c0-1.481-1.152-2.717-2.634-2.717s-2.593,1.193-2.593,2.717,1.111,2.717,2.593,2.717,2.634-1.195,2.634-2.717ZM160.93,89.532c-.823,0-1.853.329-2.551,1.029v-.823h-2.058v9.385h2.223v-6.752c.658-.493,1.276-.781,2.016-.781,1.318,0,1.934.781,1.934,2.264v5.269h2.222v-5.764c0-2.345-1.235-3.827-3.787-3.827ZM173.359,86.198h2.223v12.925h0s-2.101,0-2.101,0v-.742c-.493.535-1.316.948-2.263.948-2.758,0-4.569-2.058-4.569-4.898,0-2.758,1.647-4.898,4.569-4.898.783,0,1.605.329,2.141.781v-4.116ZM173.359,92.125c-.454-.329-.988-.535-1.853-.535-1.605,0-2.593,1.029-2.593,2.717,0,1.812.988,2.964,2.716,2.964.699,0,1.276-.206,1.729-.495v-4.651ZM187.394,94.43c0,2.717-2.18,4.898-4.897,4.898s-4.898-2.181-4.898-4.898,2.181-4.898,4.897-4.898,4.898,2.181,4.898,4.898ZM185.131,94.43c0-1.481-1.152-2.717-2.634-2.717-1.44,0-2.593,1.193-2.593,2.717s1.111,2.717,2.593,2.717,2.634-1.195,2.634-2.717ZM194.063,89.532c-.823,0-1.853.329-2.551,1.029v-.823h-2.058v9.385h2.223v-6.752c.659-.493,1.276-.781,2.058-.781,1.317,0,1.893.781,1.893,2.264v5.269h2.221v-5.764c0-2.345-1.235-3.827-3.787-3.827ZM89.688,78.337h5.016v8.108h-5.023c-1.877,9.151-9.952,16.012-19.632,16.012s-17.755-6.86-19.632-16.012h-5.063v-8.108h5.057c1.866-9.138,9.948-16.012,19.639-16.012s17.773,6.873,19.639,16.012ZM57.775,78.337h24.547c-1.692-5.153-6.529-8.891-12.274-8.891-5.745,0-10.582,3.738-12.274,8.891ZM82.315,86.445h-24.532c1.698,5.163,6.529,8.89,12.266,8.89s10.567-3.728,12.266-8.89Z" fill="#fff" fill-rule="evenodd" stroke-width="0"/>
    </g>
  </g>
</svg>