<?xml version="1.0" encoding="UTF-8"?>
<svg id="b" data-name="Layer 2" xmlns="http://www.w3.org/2000/svg" width="243.203" height="164.782" viewBox="0 0 243.203 164.782">
  <g id="c" data-name="Layer 1">
    <g>
      <rect width="243.203" height="164.782" fill="none" stroke-width="0"/>
      <g id="d" data-name="layer1">
        <g id="e" data-name="g2814">
          <path id="f" data-name="path2685" d="M95.65,81.811h-5.274c-1.121,0-2.161-.665-2.492-1.661-.955-2.783-3.696-3.781-3.696-3.781-.997-.373-1.744-1.327-1.744-2.49v-5.275c0-1.449,1.205-2.612,2.657-2.612s2.617,1.079,2.617,2.612l-.041,4.235,6.104-6.1c1.038-1.04,2.699-1.04,3.738,0,1.038,1.033,1.038,2.735,0,3.775l-6.023,5.98h4.154c1.455,0,2.657,1.205,2.657,2.656s-1.203,2.66-2.657,2.66M95.608,88.2l-4.235-.041,6.104,6.104c1.038,1.038,1.038,2.699,0,3.739-1.037,1.037-2.699,1.037-3.737,0l-6.023-6.023v4.152c0,1.579-1.204,2.66-2.658,2.66s-2.657-1.205-2.657-2.66v-5.273c0-1.122.706-2.162,1.704-2.492,2.782-.956,3.737-3.692,3.737-3.692.373-.995,1.371-1.743,2.492-1.743h5.274c1.454,0,2.658,1.206,2.658,2.656s-1.079,2.613-2.658,2.613M78.627,98.749c-1.454,0-2.617-.956-2.576-2.618l.042-4.235-6.104,6.106c-1.037,1.037-2.741,1.037-3.737,0-1.04-1.04-1.04-2.743,0-3.739l5.979-6.023h-4.111c-1.496,0-2.657-1.204-2.657-2.654s1.162-2.656,2.657-2.656h5.275c1.12,0,2.118.665,2.491,1.661.955,2.819,3.654,3.775,3.654,3.775,1.037.373,1.746,1.329,1.746,2.492v5.273c0,1.455-1.164,2.618-2.658,2.618M79.582,76.413c-2.783.997-3.738,3.695-3.738,3.695-.374.997-1.37,1.745-2.492,1.745h-5.274c-1.454,0-2.657-1.205-2.657-2.658s.997-2.615,2.657-2.615l4.238.041-6.106-6.104c-1.038-1.04-1.038-2.699,0-3.734,1.038-1.038,2.699-1.038,3.738,0l6.022,6.018v-4.153c0-1.449,1.163-2.654,2.658-2.654,1.453,0,2.615,1.205,2.615,2.654v5.273c0,1.123-.665,2.16-1.661,2.493" fill="#fff" stroke-width="0"/>
          <path id="g" data-name="path2697" d="M165.363,98.956c-2.824,0-6.394-.455-8.178-.995l1.413-5.816c1.283.583,4.149,1.496,6.765,1.496,3.157,0,5.524-1.37,5.524-4.154,0-2.365-1.455-3.609-5.524-5.183-4.152-1.62-7.596-3.614-7.596-9.51,0-5.773,4.565-8.966,11.5-8.966,2.948,0,5.938.581,7.724,1.163l-1.37,5.644c-1.205-.664-3.531-1.496-6.354-1.496-3.364,0-4.859,1.289-4.859,3.488,0,2.244,1.661,3.075,5.273,4.653,4.985,2.119,8.101,4.235,8.101,9.793,0,6.147-4.902,9.885-12.419,9.885M143.066,84.426h-3.818v9.297h4.025c3.157,0,5.606-1.246,5.606-4.69,0-3.155-2.283-4.606-5.813-4.606M143.107,71.18h-3.859v8.43h3.568c2.7,0,5.026-1.454,5.026-4.361,0-2.742-1.662-4.069-4.735-4.069M143.439,98.667h-10.462v-32.426h11.001c6.313,0,10.466,3.07,10.466,8.468,0,3.821-2.534,5.979-4.942,6.935,3.322.872,6.022,3.155,6.022,7.427,0,5.649-4.36,9.596-12.085,9.596M116.951,71.221h-3.198v9.26h2.492c3.364,0,5.81-1.454,5.81-4.61,0-2.783-1.786-4.651-5.104-4.651M122.969,98.667c-1.953-3.947-5.478-10.177-7.556-13.412h-1.661v13.412h-6.23v-32.426h10.259c6.765,0,10.793,3.235,10.793,9.713,0,4.444-3.198,7.185-6.56,8.307,2.158,2.942,6.311,10.169,8.387,14.406h-7.433Z" fill="#fff" stroke-width="0"/>
        </g>
      </g>
    </g>
  </g>
</svg>