<?xml version="1.0" encoding="UTF-8"?>
<svg id="b" data-name="Layer 2" xmlns="http://www.w3.org/2000/svg" width="243.203" height="164.782" viewBox="0 0 243.203 164.782">
  <g id="c" data-name="Layer 1">
    <rect width="243.203" height="164.782" fill="none" stroke-width="0"/>
    <path d="M51.71,90.854c0-2.843,2.446-5.229,5.318-5.229,1.488,0,2.858.634,3.83,1.636l-1.311,1.223c-.634-.722-1.547-1.18-2.519-1.18-1.871,0-3.447,1.622-3.447,3.55,0,1.945,1.576,3.566,3.447,3.566.987,0,1.886-.458,2.519-1.18l1.311,1.208c-.972,1.017-2.342,1.65-3.83,1.65-2.872,0-5.318-2.401-5.318-5.245ZM61.831,90.854c0-2.843,2.445-5.229,5.318-5.229,2.887,0,5.303,2.387,5.303,5.229s-2.416,5.245-5.303,5.245-5.318-2.401-5.318-5.245ZM70.582,90.854c0-1.929-1.576-3.55-3.433-3.55-1.871,0-3.447,1.622-3.447,3.55,0,1.945,1.576,3.566,3.447,3.566,1.856,0,3.433-1.622,3.433-3.566ZM74.46,85.801h1.841l3.329,6.174,3.344-6.174h1.827v10.122h-1.827v-6.762l-3.344,6.172-3.329-6.172v6.762h-1.841v-10.122ZM87.36,85.801h1.841l3.329,6.174,3.344-6.174h1.827v10.122h-1.827v-6.762l-3.344,6.172-3.329-6.172v6.762h-1.841v-10.122ZM100.115,91.606v-5.805h1.827v5.746c0,1.679,1.105,2.887,2.637,2.887s2.637-1.208,2.637-2.887v-5.746h1.827v5.805c0,2.636-1.842,4.493-4.464,4.493s-4.464-1.857-4.464-4.493ZM111.45,85.801h1.841l5.333,7.116v-7.116h1.842v10.122h-1.842l-5.333-7.116v7.116h-1.841v-10.122ZM122.718,85.801h1.841v10.122h-1.841v-10.122ZM126.267,90.854c0-2.843,2.445-5.229,5.318-5.229,1.488,0,2.859.634,3.83,1.636l-1.312,1.223c-.633-.722-1.546-1.18-2.519-1.18-1.87,0-3.447,1.622-3.447,3.55,0,1.945,1.577,3.566,3.447,3.566.987,0,1.886-.458,2.519-1.18l1.312,1.208c-.972,1.017-2.342,1.65-3.83,1.65-2.873,0-5.318-2.401-5.318-5.245ZM143.517,94.007h-4.832l-.796,1.916h-2.047l4.242-10.122h2.033l4.242,10.122h-2.048l-.795-1.916ZM142.883,92.505l-1.782-4.272-1.782,4.272h3.565ZM149.585,87.482h-3.24v-1.68h8.309v1.68h-3.227v8.441h-1.841v-8.441ZM156.289,85.801h1.843v10.122h-1.843v-10.122ZM160.132,90.854c0-2.843,2.445-5.229,5.318-5.229,2.887,0,5.304,2.387,5.304,5.229s-2.417,5.245-5.304,5.245-5.318-2.401-5.318-5.245ZM168.884,90.854c0-1.929-1.576-3.55-3.433-3.55-1.871,0-3.447,1.622-3.447,3.55,0,1.945,1.576,3.566,3.447,3.566,1.857,0,3.433-1.622,3.433-3.566ZM172.754,85.801h1.843l5.333,7.116v-7.116h1.841v10.122h-1.841l-5.333-7.116v7.116h-1.843v-10.122ZM183.36,94.449l1.061-1.31c.928.84,2.005,1.369,3.329,1.369,1.253,0,1.901-.619,1.901-1.34,0-.84-.722-1.119-2.343-1.503-2.091-.486-3.55-1.091-3.55-2.991,0-1.768,1.504-3.064,3.639-3.064,1.606,0,2.814.545,3.83,1.414l-1.002,1.356c-.884-.766-1.9-1.194-2.902-1.194-1.017,0-1.709.619-1.709,1.326,0,.825.751,1.119,2.356,1.488,2.107.471,3.522,1.149,3.522,2.991,0,1.812-1.385,3.094-3.801,3.094-1.738,0-3.212-.59-4.331-1.636ZM58.612,83.38l-3.049-4.352h-.988v4.352h-4.079v-14.445h6.918c3.238,0,5.53,2.082,5.53,5.046,0,2.145-1.199,3.805-3.07,4.583l3.385,4.815h-4.646ZM54.575,75.327h2.502c.967,0,1.661-.568,1.661-1.346s-.694-1.346-1.661-1.346h-2.502v2.691ZM69.329,72.573v1.619h6.875v3.637h-6.875v1.913h7.548v3.638h-11.627v-14.445h11.627v3.638h-7.548ZM88.103,81.445h-5.025l-.736,1.934h-4.604l5.551-14.445h4.604l5.551,14.445h-4.604l-.736-1.934ZM86.947,78.438l-1.346-3.511-1.367,3.511h2.712ZM105.677,79.742v3.638h-10.807v-14.445h4.079v10.807h6.728ZM117.113,72.573v1.619h6.875v3.637h-6.875v1.913h7.547v3.638h-11.627v-14.445h11.627v3.638h-7.547ZM125.815,81.193l2.271-2.712c1.471,1.156,3.069,1.765,4.772,1.765,1.114,0,1.704-.378,1.704-1.01,0-.693-.505-.799-2.503-1.261-3.132-.715-5.55-1.535-5.55-4.542,0-2.881,2.27-4.752,5.698-4.752,2.502,0,4.457.673,6.055,1.955l-2.039,2.881c-1.346-.966-2.818-1.45-4.121-1.45-.989,0-1.472.399-1.472.945,0,.736.505.968,2.566,1.408,3.363.715,5.466,1.619,5.466,4.374,0,3.048-2.334,4.836-5.95,4.836-2.608,0-5.067-.82-6.897-2.439ZM143.798,72.573h-4.267v-3.638h12.614v3.638h-4.267v10.807h-4.08v-10.807ZM162.257,81.445h-5.024l-.736,1.934h-4.604l5.55-14.445h4.606l5.55,14.445h-4.604l-.736-1.934ZM161.101,78.438l-1.346-3.511-1.367,3.511h2.712ZM171.213,72.573h-4.267v-3.638h12.614v3.638h-4.267v10.807h-4.08v-10.807ZM185.159,72.573v1.619h6.876v3.637h-6.876v1.913h7.548v3.638h-11.627v-14.445h11.627v3.638h-7.548Z" fill="#fff" stroke-width="0"/>
  </g>
</svg>